<svg width="113" height="89" viewBox="0 0 113 89" fill="none" xmlns="http://www.w3.org/2000/svg">
<path d="M67.3349 32.6456C67.3349 32.6456 87.0126 20.1171 103.012 39.0678C119.011 58.0185 77.532 82.0573 62.1959 73.9789C62.1959 73.9789 63.393 67.9736 59.1771 70.3998C54.9611 72.826 49.6235 79.3014 41.831 71.2738C34.0385 63.2463 -1.91812 28.2711 15.0588 15.4312C32.0357 2.59134 58.7082 12.925 67.3349 32.6456Z" fill="white" stroke="#525375" stroke-linecap="round" stroke-linejoin="round"/>
<path d="M72.8083 61.7658C73.3412 60.6243 72.8477 59.2669 71.7062 58.734C70.5646 58.2011 69.2072 58.6945 68.6743 59.8361C68.1415 60.9777 68.6349 62.3351 69.7764 62.8679C70.918 63.4008 72.2754 62.9074 72.8083 61.7658Z" fill="#EFEFF7"/>
<path d="M30.1086 36.0479C30.6414 34.9064 30.148 33.549 29.0065 33.0161C27.8649 32.4832 26.5075 32.9767 25.9746 34.1182C25.4417 35.2598 25.9352 36.6172 27.0767 37.15C28.2183 37.6829 29.5757 37.1895 30.1086 36.0479Z" fill="#EFEFF7"/>
<path d="M62.6286 60.087C63.1615 58.9454 62.668 57.588 61.5265 57.0552C60.3849 56.5223 59.0275 57.0157 58.4946 58.1573C57.9618 59.2988 58.4552 60.6562 59.5968 61.1891C60.7383 61.722 62.0957 61.2286 62.6286 60.087Z" fill="#EFEFF7"/>
<path d="M39.5407 62.5095C40.0736 61.3679 39.5801 60.0105 38.4386 59.4776C37.297 58.9448 35.9396 59.4382 35.4068 60.5798C34.8739 61.7213 35.3673 63.0787 36.5089 63.6116C37.6504 64.1445 39.0078 63.651 39.5407 62.5095Z" fill="#EFEFF7"/>
<path d="M45.9653 59.8321C46.3156 59.0815 47.2081 58.7571 47.9586 59.1075C48.7091 59.4578 49.0335 60.3503 48.6832 61.1008C48.3328 61.8513 47.4404 62.1757 46.6899 61.8254C45.9394 61.475 45.615 60.5826 45.9653 59.8321Z" fill="#EFEFF7"/>
<path d="M38.4394 54.8395C38.7898 54.089 39.6822 53.7646 40.4327 54.1149C41.1832 54.4653 41.5076 55.3577 41.1573 56.1082C40.807 56.8587 39.9145 57.1832 39.164 56.8328C38.4135 56.4825 38.0891 55.59 38.4394 54.8395Z" fill="#EFEFF7"/>
<path d="M65.5949 61.6164C65.775 61.2304 66.224 61.059 66.5977 61.2335C66.9715 61.4079 67.1284 61.8622 66.9483 62.2481C66.7681 62.634 66.3191 62.8055 65.9454 62.631C65.5716 62.4566 65.4147 62.0023 65.5949 61.6164Z" fill="#EFEFF7"/>
<path d="M34.0519 35.5893C34.232 35.2033 34.681 35.0319 35.0548 35.2064C35.4285 35.3808 35.5854 35.8351 35.4053 36.221C35.2251 36.6069 34.7761 36.7784 34.4024 36.6039C34.0287 36.4295 33.8717 35.9752 34.0519 35.5893Z" fill="#EFEFF7"/>
<path d="M37.8234 43.5124C38.0035 43.1264 38.4525 42.955 38.8263 43.1295C39.2 43.3039 39.3569 43.7582 39.1768 44.1441C38.9966 44.53 38.5476 44.7015 38.1739 44.527C37.8002 44.3526 37.6432 43.8983 37.8234 43.5124Z" fill="#EFEFF7"/>
<path d="M43.2653 48.9253C43.4454 48.5394 43.8944 48.368 44.2681 48.5424C44.6419 48.7169 44.7988 49.1712 44.6187 49.5571C44.4385 49.943 43.9895 50.1144 43.6158 49.94C43.242 49.7655 43.0851 49.3112 43.2653 48.9253Z" fill="#EFEFF7"/>
<path d="M53.2946 55.5785C53.4747 55.1926 53.9237 55.0212 54.2974 55.1956C54.6712 55.3701 54.8281 55.8244 54.648 56.2103C54.4678 56.5962 54.0188 56.7676 53.6451 56.5932C53.2713 56.4187 53.1144 55.9644 53.2946 55.5785Z" fill="#EFEFF7"/>
<path d="M59.1657 62.6719C59.3458 62.286 59.7948 62.1146 60.1685 62.289C60.5423 62.4635 60.6992 62.9178 60.5191 63.3037C60.3389 63.6896 59.8899 63.861 59.5162 63.6866C59.1424 63.5121 58.9855 63.0578 59.1657 62.6719Z" fill="#EFEFF7"/>
<path d="M53.3076 64.3554C53.6579 63.6049 54.5504 63.2804 55.3009 63.6308C56.0514 63.9811 56.3758 64.8736 56.0255 65.6241C55.6751 66.3746 54.7827 66.699 54.0322 66.3487C53.2816 65.9983 52.9572 65.1059 53.3076 64.3554Z" fill="#EFEFF7"/>
<path d="M34.2446 44.8345C34.5949 44.084 35.4874 43.7596 36.2379 44.1099C36.9884 44.4603 37.3128 45.3527 36.9625 46.1032C36.6121 46.8537 35.7197 47.1781 34.9692 46.8278C34.2187 46.4775 33.8942 45.585 34.2446 44.8345Z" fill="#EFEFF7"/>
<path d="M35.5083 51.0911C35.8586 50.3406 36.751 50.0162 37.5016 50.3665C38.2521 50.7169 38.5765 51.6093 38.2262 52.3598C37.8758 53.1103 36.9834 53.4347 36.2329 53.0844C35.4823 52.7341 35.1579 51.8416 35.5083 51.0911Z" fill="#EFEFF7"/>
<path d="M28.8335 50.2708C29.1838 49.5203 30.0762 49.1959 30.8268 49.5462C31.5773 49.8965 31.9017 50.789 31.5513 51.5395C31.201 52.29 30.3086 52.6144 29.558 52.2641C28.8075 51.9137 28.4831 51.0213 28.8335 50.2708Z" fill="#EFEFF7"/>
<path d="M92.123 56.6055C92.4734 55.855 93.3658 55.5306 94.1163 55.8809C94.8668 56.2313 95.1912 57.1237 94.8409 57.8742C94.4906 58.6247 93.5981 58.9491 92.8476 58.5988C92.0971 58.2485 91.7727 57.356 92.123 56.6055Z" fill="#EFEFF7"/>
<path d="M25.0302 31.4982C25.3806 30.7477 26.273 30.4233 27.0235 30.7736C27.7741 31.124 28.0985 32.0164 27.7481 32.7669C27.3978 33.5174 26.5054 33.8418 25.7548 33.4915C25.0043 33.1412 24.6799 32.2487 25.0302 31.4982Z" fill="#EFEFF7"/>
<path d="M66.164 72.4493C66.5144 71.6987 67.4068 71.3743 68.1573 71.7247C68.9078 72.075 69.2323 72.9674 68.8819 73.718C68.5316 74.4685 67.6391 74.7929 66.8886 74.4426C66.1381 74.0922 65.8137 73.1998 66.164 72.4493Z" fill="#EFEFF7"/>
<path d="M32.4872 54.8562C33.2967 53.1219 35.3589 52.3722 37.0932 53.1818C38.8275 53.9914 39.5772 56.0536 38.7676 57.7879C37.958 59.5222 35.8958 60.2718 34.1615 59.4622C32.4272 58.6527 31.6776 56.5905 32.4872 54.8562Z" fill="#EFEFF7"/>
<path d="M29.4676 43.0691C30.2772 41.3347 32.3394 40.5851 34.0737 41.3947C35.808 42.2042 36.5577 44.2665 35.7481 46.0008C34.9385 47.7351 32.8763 48.4847 31.142 47.6751C29.4077 46.8656 28.6581 44.8034 29.4676 43.0691Z" fill="#EFEFF7"/>
<path d="M41.9955 64.2305C42.805 62.4962 44.8672 61.7466 46.6015 62.5562C48.3358 63.3657 49.0855 65.428 48.2759 67.1623C47.4663 68.8966 45.4041 69.6462 43.6698 68.8366C41.9355 68.0271 41.1859 65.9648 41.9955 64.2305Z" fill="#EFEFF7"/>
<path d="M55.7218 64.6592C56.4069 63.1915 58.1522 62.557 59.6199 63.2422C61.0877 63.9273 61.7221 65.6726 61.0369 67.1403C60.3518 68.608 58.6066 69.2424 57.1388 68.5573C55.6711 67.8722 55.0367 66.1269 55.7218 64.6592Z" fill="#EFEFF7"/>
<path d="M73.7325 66.2867C74.1423 65.4089 75.1861 65.0295 76.0639 65.4392C76.9417 65.849 77.3211 66.8928 76.9114 67.7706C76.5016 68.6484 75.4578 69.0278 74.58 68.618C73.7022 68.2083 73.3228 67.1645 73.7325 66.2867Z" fill="#EFEFF7"/>
<path d="M81.0255 60.2382C81.4353 59.3604 82.4791 58.981 83.3569 59.3908C84.2347 59.8005 84.6141 60.8443 84.2043 61.7221C83.7946 62.5999 82.7508 62.9793 81.873 62.5696C80.9952 62.1598 80.6158 61.116 81.0255 60.2382Z" fill="#EFEFF7"/>
<path d="M61.0353 66.656C61.445 65.7782 62.4888 65.3987 63.3666 65.8085C64.2444 66.2182 64.6239 67.262 64.2141 68.1398C63.8043 69.0176 62.7606 69.3971 61.8828 68.9873C61.0049 68.5776 60.6255 67.5338 61.0353 66.656Z" fill="#EFEFF7"/>
<path d="M71.6476 66.7117C72.0573 65.8339 73.1011 65.4545 73.9789 65.8643C74.8567 66.274 75.2362 67.3178 74.8264 68.1956C74.4166 69.0734 73.3729 69.4529 72.4951 69.0431C71.6173 68.6333 71.2378 67.5896 71.6476 66.7117Z" fill="#EFEFF7"/>
<path d="M46.3317 54.1877C46.7414 53.3099 47.7852 52.9305 48.663 53.3402C49.5408 53.75 49.9203 54.7938 49.5105 55.6716C49.1007 56.5494 48.057 56.9288 47.1791 56.519C46.3013 56.1093 45.9219 55.0655 46.3317 54.1877Z" fill="#EFEFF7"/>
<path d="M47.7028 68.145C48.1125 67.2672 49.1563 66.8877 50.0341 67.2975C50.9119 67.7073 51.2913 68.751 50.8816 69.6288C50.4718 70.5067 49.428 70.8861 48.5502 70.4763C47.6724 70.0666 47.293 69.0228 47.7028 68.145Z" fill="#EFEFF7"/>
<path d="M72.0782 60.8219C72.488 59.944 73.5318 59.5646 74.4096 59.9744C75.2874 60.3841 75.6668 61.4279 75.2571 62.3057C74.8473 63.1835 73.8035 63.563 72.9257 63.1532C72.0479 62.7434 71.6685 61.6997 72.0782 60.8219Z" fill="#EFEFF7"/>
<path d="M39.1289 37.9144C39.1171 36.4072 39.5832 35.1071 40.3697 34.755C41.5221 34.236 42.9747 35.9191 43.5889 37.2319C44.7009 39.6398 44.0307 43.2508 41.9102 44.8438C41.5802 45.0949 40.4052 45.9766 39.52 45.5481C38.2823 44.942 38.0651 41.9502 39.1289 37.9144Z" fill="#525375" stroke="#525375" stroke-linecap="round" stroke-linejoin="round"/>
<path d="M69.3377 12.3507C69.3377 12.3507 70.3581 16.4493 67.3352 32.6456C67.3352 32.6456 66.8703 17.0035 66.8161 12.8621C66.796 11.448 69.3377 12.3507 69.3377 12.3507Z" fill="white" stroke="#525375" stroke-linecap="round" stroke-linejoin="round"/>
<path d="M74.5045 22.5152C74.5045 22.5152 76.9682 -2.69004 101.537 5.80627C101.535 5.814 95.4716 37.5596 74.5045 22.5152Z" fill="#525375" stroke="#525375" stroke-linecap="round" stroke-linejoin="round"/>
<path d="M40.6976 37.1631C30.9209 33.7733 27.4654 36.4411 26.5716 37.2699C24.99 38.7343 23.1541 41.0212 22.8828 46.1565C22.589 51.7789 21.4575 53.9111 20.0958 54.2785C19.6139 54.1588 19.1448 53.9924 18.6952 53.782C16.2693 52.6494 15.8478 50.8829 13.9316 49.0793C13.1605 48.35 10.7981 46.1283 8.39353 46.5759C6.59192 46.9204 5.24682 48.6679 4.71247 50.1444C3.09101 54.6269 7.25945 61.1875 12.7393 63.9694C13.9301 64.5795 19.6426 67.2873 24.022 64.7185C28.6595 61.9955 29.6574 54.6065 30.0256 51.8714C30.5592 47.9004 29.9375 45.7777 31.5206 44.4007C33.4192 42.7647 36.8863 43.6053 39.6272 44.636C40.4075 44.5086 41.1327 44.1565 41.713 43.6233C42.2933 43.0901 42.7035 42.399 42.893 41.6355C43.0772 40.7548 42.9612 39.8374 42.5638 39.0276C42.1663 38.2179 41.5098 37.562 40.6976 37.1631Z" fill="white" stroke="#525375" stroke-linecap="round" stroke-linejoin="round"/>
<path d="M10.577 51.4172C10.5765 51.3202 10.5536 51.2246 10.5101 51.1377C10.4665 51.0507 10.4035 50.9749 10.3258 50.916C10.2482 50.857 10.158 50.8166 10.0622 50.7979C9.96648 50.7791 9.86768 50.7825 9.77361 50.8077C9.00554 50.9204 10.0582 52.293 10.577 51.4172Z" fill="white" stroke="#525375" stroke-linecap="round" stroke-linejoin="round"/>
<path d="M7.92515 53.5414C7.92515 53.5414 7.55234 52.8197 7.21079 53.2375C6.86924 53.6554 7.40636 54.4171 7.92515 53.5414Z" fill="white" stroke="#525375" stroke-linecap="round" stroke-linejoin="round"/>
<path d="M14.1543 52.0889L14.6361 54.3172L12.6915 54.3193L12.9016 56.4746L11.0073 55.7572L10.7939 58.9561L9.07851 57.0213L8.41908 58.9429L7.26919 57.5844" fill="white"/>
<path d="M14.1543 52.0889L14.6361 54.3172L12.6915 54.3193L12.9016 56.4746L11.0073 55.7572L10.7939 58.9561L9.07851 57.0213L8.41908 58.9429L7.26919 57.5844" stroke="#525375" stroke-linecap="round" stroke-linejoin="round"/>
</svg>
