<svg width="158" height="80" viewBox="0 0 158 80" fill="none" xmlns="http://www.w3.org/2000/svg">
<path d="M90.3594 43.7792C95.6993 37.8313 101.859 32.6767 108.653 28.4712C116.598 23.5739 121.573 20.5092 128.508 20.8778C138.415 21.4044 145.014 28.5396 147.023 30.7092C155.352 39.7086 158.633 53.7738 156.283 55.1693L156.199 55.2167C153.391 56.5121 150.188 51.0987 145.461 50.7038C142.469 50.451 138.867 52.2152 137.095 54.7218C135.407 57.1177 135.176 60.4826 133.025 60.867C132.78 60.904 132.53 60.904 132.284 60.867C129.397 60.5985 127.404 58.0551 125.496 56.3384C125.133 56.0119 121.815 53.0893 118.802 52.4837C117.456 52.2152 113.402 51.8519 107.428 58.1815C104.862 57.0177 100.413 52.3205 93.709 55.6696C92.7573 56.1436 91.9633 56.5332 91.8003 57.2494C91.0904 60.3668 96.4959 66.7596 94.708 73.2946C94.708 73.2946 98.9515 72.4573 98.0576 74.5794C97.1637 76.7016 94.8238 74.4689 94.8238 74.4689C94.8238 74.4689 95.8282 80.7248 93.2464 78.0444C90.6645 75.3641 92.016 74.69 92.016 74.69C92.016 74.69 91.9632 79.2186 89.9545 77.5388C87.9459 75.859 91.7949 73.4104 91.7949 73.4104C91.7949 73.4104 86.7733 68.9976 85.5481 66.3173C83.7077 64.2478 74.1692 65.9802 72.0501 67.4336C72.0501 67.4336 69.7627 72.4889 68.6795 73.9107C68.6795 73.9107 71.2719 74.7479 70.3517 76.5067C69.4315 78.2655 67.4229 74.9269 67.4229 74.9269C67.4229 74.9269 68.4271 78.8659 66.0819 78.5289C63.7367 78.1919 65.4983 74.9269 65.4983 74.9269C65.4983 74.9269 63.3214 76.3487 62.4853 75.1797C61.6493 74.0107 65.9189 73.0733 65.9189 73.0733C65.9189 73.0733 63.658 69.3873 64.6623 65.7854C65.9191 61.2831 64.799 60.0351 63.9103 58.0498C62.6799 55.2958 59.0623 52.8839 55.0975 52.1308C48.1145 50.7986 42.8561 55.896 42.3829 56.3752C34.6269 49.0977 29.9838 48.3764 27.1022 49.3611C22.3698 50.983 20.5347 57.8234 17.4797 57.26C15.4657 56.8755 15.5654 53.7633 13.0625 52.1888C9.84968 50.1667 4.8701 52.2679 1 54.4954C1.87288 39.4612 9.5711 27.0389 20.277 23.4265C27.1128 21.1253 34.385 22.7209 35.0002 22.8683C37.0036 23.3317 40.4268 24.369 50.1704 31.3569C53.9669 34.0846 59.1095 37.9761 64.8937 43.0841C64.8937 43.0841 62.5904 22.9999 71.5821 20.8567C90.3594 16.407 90.3594 43.7792 90.3594 43.7792Z" fill="white" stroke="#525375" stroke-linecap="round" stroke-linejoin="round"/>
<path d="M84.9876 62.1927C84.6402 63.4037 85.3402 64.667 86.5512 65.0145C87.7621 65.3619 89.0254 64.6619 89.3729 63.4509C89.7203 62.24 89.0203 60.9766 87.8093 60.6292C86.5984 60.2818 85.3351 60.9818 84.9876 62.1927Z" fill="#EFEFF7"/>
<path d="M73.6292 60.1927C73.2818 61.4037 73.9818 62.667 75.1928 63.0145C76.4037 63.3619 77.667 62.6619 78.0145 61.4509C78.3619 60.24 77.6619 58.9766 76.4509 58.6292C75.24 58.2818 73.9767 58.9818 73.6292 60.1927Z" fill="#EFEFF7"/>
<path d="M42.3704 48.586C41.1355 48.8355 40.3367 50.0388 40.5862 51.2737C40.8357 52.5085 42.039 53.3073 43.2739 53.0578C44.5087 52.8083 45.3075 51.605 45.058 50.3702C44.8085 49.1353 43.6052 48.3365 42.3704 48.586Z" fill="#EFEFF7"/>
<path d="M151.629 49.1929C151.282 50.4038 151.982 51.6671 153.193 52.0146C154.404 52.362 155.667 51.662 156.014 50.451C156.362 49.2401 155.662 47.9768 154.451 47.6293C153.24 47.2819 151.977 47.9819 151.629 49.1929Z" fill="#EFEFF7"/>
<path d="M52.1233 48.9285C51.8949 49.7247 51.0643 50.1849 50.2682 49.9565C49.472 49.7281 49.0118 48.8975 49.2402 48.1013C49.4686 47.3052 50.2992 46.845 51.0954 47.0734C51.8915 47.3018 52.3517 48.1324 52.1233 48.9285Z" fill="#EFEFF7"/>
<path d="M58.2967 50.2687C58.0682 51.0649 57.2377 51.5251 56.4415 51.2967C55.6454 51.0683 55.1851 50.2377 55.4136 49.4416C55.642 48.6454 56.4726 48.1852 57.2687 48.4136C58.0648 48.642 58.5251 49.4726 58.2967 50.2687Z" fill="#EFEFF7"/>
<path d="M30.6488 47.1532C30.5313 47.5625 30.1147 47.8022 29.7183 47.6884C29.3218 47.5747 29.0957 47.1506 29.2131 46.7412C29.3306 46.3319 29.7472 46.0922 30.1436 46.206C30.5401 46.3197 30.7662 46.7438 30.6488 47.1532Z" fill="#EFEFF7"/>
<path d="M67.6878 71.0055C67.5704 71.4148 67.1538 71.6545 66.7573 71.5407C66.3609 71.427 66.1347 71.0029 66.2522 70.5935C66.3696 70.1842 66.7862 69.9445 67.1827 70.0583C67.5791 70.172 67.8053 70.5961 67.6878 71.0055Z" fill="#EFEFF7"/>
<path d="M83.6483 53.1532C83.5308 53.5625 83.1142 53.8022 82.7178 53.6884C82.3213 53.5747 82.0952 53.1506 82.2126 52.7412C82.3301 52.3319 82.7467 52.0922 83.1431 52.206C83.5396 52.3197 83.7658 52.7438 83.6483 53.1532Z" fill="#EFEFF7"/>
<path d="M146.649 49.1532C146.532 49.5625 146.115 49.8022 145.719 49.6884C145.322 49.5747 145.096 49.1506 145.214 48.7412C145.331 48.3319 145.748 48.0922 146.144 48.206C146.541 48.3197 146.767 48.7438 146.649 49.1532Z" fill="#EFEFF7"/>
<path d="M116.649 50.1532C116.532 50.5625 116.115 50.8022 115.719 50.6884C115.322 50.5747 115.096 50.1506 115.214 49.7412C115.331 49.3319 115.748 49.0922 116.144 49.206C116.541 49.3197 116.767 49.7438 116.649 50.1532Z" fill="#EFEFF7"/>
<path d="M131.649 46.1529C131.532 46.5623 131.115 46.802 130.719 46.6882C130.322 46.5745 130.096 46.1504 130.214 45.741C130.331 45.3316 130.748 45.092 131.144 45.2057C131.541 45.3195 131.767 45.7435 131.649 46.1529Z" fill="#EFEFF7"/>
<path d="M68.6488 61.1532C68.5313 61.5625 68.1147 61.8022 67.7183 61.6884C67.3218 61.5747 67.0957 61.1506 67.2131 60.7412C67.3306 60.3319 67.7472 60.0922 68.1436 60.206C68.5401 60.3197 68.7662 60.7438 68.6488 61.1532Z" fill="#EFEFF7"/>
<path d="M43.6488 54.1532C43.5313 54.5625 43.1147 54.8022 42.7183 54.6884C42.3218 54.5747 42.0957 54.1506 42.2131 53.7412C42.3306 53.3319 42.7472 53.0922 43.1436 53.206C43.5401 53.3197 43.7662 53.7438 43.6488 54.1532Z" fill="#EFEFF7"/>
<path d="M38.641 48.1921C38.5235 48.6015 38.1069 48.8411 37.7105 48.7274C37.314 48.6136 37.0878 48.1896 37.2053 47.7802C37.3228 47.3708 37.7394 47.1311 38.1358 47.2449C38.5323 47.3586 38.7584 47.7827 38.641 48.1921Z" fill="#EFEFF7"/>
<path d="M44.1629 45.6115C43.9344 46.4077 43.1039 46.8679 42.3077 46.6395C41.5116 46.411 41.0513 45.5805 41.2798 44.7843C41.5082 43.9882 42.3388 43.5279 43.1349 43.7564C43.9311 43.9848 44.3913 44.8154 44.1629 45.6115Z" fill="#EFEFF7"/>
<path d="M134.297 55.2687C134.068 56.0649 133.238 56.5251 132.442 56.2967C131.645 56.0683 131.185 55.2377 131.414 54.4416C131.642 53.6454 132.473 53.1852 133.269 53.4136C134.065 53.642 134.525 54.4726 134.297 55.2687Z" fill="#EFEFF7"/>
<path d="M65.2967 54.2687C65.0682 55.0649 64.2377 55.5251 63.4415 55.2967C62.6454 55.0683 62.1851 54.2377 62.4136 53.4416C62.642 52.6454 63.4726 52.1852 64.2687 52.4136C65.0648 52.642 65.5251 53.4726 65.2967 54.2687Z" fill="#EFEFF7"/>
<path d="M70.5413 55.6876C70.3129 56.4837 69.4823 56.9439 68.6861 56.7155C67.89 56.4871 67.4298 55.6565 67.6582 54.8604C67.8866 54.0642 68.7172 53.604 69.5133 53.8324C70.3095 54.0608 70.7697 54.8914 70.5413 55.6876Z" fill="#EFEFF7"/>
<path d="M7.29616 49.2689C7.06774 50.065 6.23716 50.5252 5.44102 50.2968C4.64487 50.0684 4.18464 49.2378 4.41306 48.4417C4.64149 47.6455 5.47206 47.1853 6.26821 47.4137C7.06436 47.6421 7.52459 48.4727 7.29616 49.2689Z" fill="#EFEFF7"/>
<path d="M71.2967 65.2687C71.0682 66.0649 70.2377 66.5251 69.4415 66.2967C68.6454 66.0683 68.1851 65.2377 68.4136 64.4416C68.642 63.6454 69.4726 63.1852 70.2687 63.4136C71.0648 63.642 71.5251 64.4726 71.2967 65.2687Z" fill="#EFEFF7"/>
<path d="M30.197 39.632C29.9686 40.4282 29.138 40.8884 28.3419 40.66C27.5457 40.4316 27.0855 39.601 27.3139 38.8048C27.5424 38.0087 28.3729 37.5485 29.1691 37.7769C29.9652 38.0053 30.4255 38.8359 30.197 39.632Z" fill="#EFEFF7"/>
<path d="M66.2148 51.7312C65.687 53.571 63.7677 54.6345 61.9279 54.1066C60.0882 53.5788 59.0247 51.6595 59.5526 49.8198C60.0804 47.98 61.9997 46.9165 63.8394 47.4444C65.6791 47.9722 66.7426 49.8915 66.2148 51.7312Z" fill="#EFEFF7"/>
<path d="M109.618 51.2426C109.09 53.0823 107.171 54.1458 105.331 53.618C103.491 53.0901 102.428 51.1708 102.955 49.3311C103.483 47.4914 105.403 46.4279 107.242 46.9557C109.082 47.4836 110.145 49.4029 109.618 51.2426Z" fill="#EFEFF7"/>
<path d="M130.107 50.6255C129.579 52.4652 127.66 53.5287 125.82 53.0009C123.98 52.4731 122.917 50.5538 123.445 48.7141C123.972 46.8743 125.892 45.8108 127.732 46.3387C129.571 46.8665 130.635 48.7858 130.107 50.6255Z" fill="#EFEFF7"/>
<path d="M41.7308 45.6897C41.2841 47.2467 39.6598 48.1467 38.1028 47.7C36.5459 47.2533 35.6458 45.629 36.0925 44.072C36.5392 42.5151 38.1635 41.6151 39.7205 42.0618C41.2774 42.5085 42.1775 44.1328 41.7308 45.6897Z" fill="#EFEFF7"/>
<path d="M23.6871 46.9044C23.42 47.8355 22.4485 48.3738 21.5174 48.1067C20.5862 47.8395 20.0479 46.8681 20.3151 45.9369C20.5822 45.0057 21.5537 44.4674 22.4849 44.7346C23.416 45.0018 23.9543 45.9732 23.6871 46.9044Z" fill="#EFEFF7"/>
<path d="M18.8561 52.6535C18.5889 53.5847 17.6175 54.123 16.6863 53.8558C15.7552 53.5886 15.2169 52.6172 15.484 51.686C15.7512 50.7549 16.7226 50.2166 17.6538 50.4837C18.585 50.7509 19.1233 51.7223 18.8561 52.6535Z" fill="#EFEFF7"/>
<path d="M36.1701 44.5502C35.9029 45.4814 34.9315 46.0197 34.0003 45.7525C33.0691 45.4854 32.5308 44.5139 32.798 43.5828C33.0652 42.6516 34.0366 42.1133 34.9678 42.3805C35.8989 42.6476 36.4372 43.6191 36.1701 44.5502Z" fill="#EFEFF7"/>
<path d="M25.6803 46.1578C25.4131 47.089 24.4417 47.6272 23.5105 47.3601C22.5794 47.0929 22.0411 46.1215 22.3083 45.1903C22.5754 44.2591 23.5469 43.7209 24.478 43.988C25.4092 44.2552 25.9475 45.2266 25.6803 46.1578Z" fill="#EFEFF7"/>
<path d="M93.2573 69.1034C93.0455 69.8415 92.2755 70.2681 91.5373 70.0564C90.7992 69.8446 90.3726 69.0746 90.5843 68.3365C90.7961 67.5984 91.5661 67.1717 92.3042 67.3834C93.0423 67.5952 93.469 68.3652 93.2573 69.1034Z" fill="#EFEFF7"/>
<path d="M138.056 48.1034C137.844 48.8415 137.074 49.2681 136.336 49.0564C135.598 48.8446 135.171 48.0746 135.383 47.3365C135.595 46.5984 136.365 46.1717 137.103 46.3834C137.841 46.5952 138.268 47.3652 138.056 48.1034Z" fill="#EFEFF7"/>
<path d="M123.856 47.6536C123.589 48.5848 122.617 49.1231 121.686 48.8559C120.755 48.5888 120.217 47.6173 120.484 46.6862C120.751 45.755 121.723 45.2167 122.654 45.4839C123.585 45.751 124.123 46.7225 123.856 47.6536Z" fill="#EFEFF7"/>
<path d="M85.8561 63.0109C85.5889 63.9421 84.6175 64.4804 83.6863 64.2132C82.7552 63.9461 82.2169 62.9746 82.484 62.0435C82.7512 61.1123 83.7226 60.574 84.6538 60.8412C85.585 61.1083 86.1233 62.0798 85.8561 63.0109Z" fill="#EFEFF7"/>
<path d="M91.0276 38.0815L63.8159 39.1979C62.693 32.0692 62.4301 24.8309 63.0326 17.6392C63.469 12.6261 64.7887 2.62092 66.0823 2.64724C66.1512 2.65032 66.2166 2.67847 66.2664 2.72631C67.6072 3.90061 70.1153 16.128 70.1153 16.128C70.1153 16.128 82.3305 12.7789 85.007 16.128C85.007 16.128 84.3391 2.3892 86.3478 1.05166C88.3564 -0.285877 92.3685 24.6745 91.0276 38.0815Z" fill="#525375" stroke="#525375" stroke-linecap="round" stroke-linejoin="round"/>
<path d="M86.957 24.3755L80.1119 24.6721C80.1119 24.6721 79.2739 28.0303 82.756 28.3268C86.238 28.6234 87.3194 27.5959 86.957 24.3755Z" fill="white" stroke="#525375" stroke-linecap="round" stroke-linejoin="round"/>
<path d="M75.9575 24.8611C75.9575 24.8611 76.8061 28.3755 72.4152 28.3755C68.0242 28.3755 69.1538 24.3755 69.1538 24.3755L75.9575 24.8611Z" fill="white" stroke="#525375" stroke-linecap="round" stroke-linejoin="round"/>
</svg>
