<svg width="155" height="68" viewBox="0 0 155 68" fill="none" xmlns="http://www.w3.org/2000/svg">
<path d="M2.96728 30.2199C4.48576 18.9295 8.36171 11.4868 12.7429 11.14C15.6794 10.9077 18.2318 13.906 19.7001 15.6285C27.3486 24.6114 24.4269 36.8276 28.4683 37.877C30.0015 38.2768 31.6382 36.86 32.6722 35.8194C41.7151 26.8218 35.2217 9.81731 42.5069 3.30353C43.9456 2.019 45.4847 0.807955 47.337 1.02547C57.3519 2.20125 56.9826 44.1234 65.3845 44.7995C67.033 44.9317 68.2945 43.4209 70.2738 41.0576C80.0051 29.4262 73.4112 15.9136 81.7954 9.63207C84.3685 7.70674 87.113 7.07177 90.2031 7.01299C106.859 6.69259 111.441 10.7331 111.29 22.3674C112.507 22.3674 113.724 22.8758 114.941 23.9901C118.046 26.8325 114.879 32.5798 111.29 31.698C107.898 44.3375 89.0746 37.3157 89.0746 37.3157C89.0746 37.3157 80.3212 67.6301 68.714 67.2479C66.6785 67.1803 65.3018 66.1838 63.1275 64.6376C52.4922 57.0656 50.2588 41.7101 48.8408 31.9041C48.4478 29.1911 47.922 24.7702 47.5232 24.7937C46.5364 24.8554 50.7256 52.2127 41.5733 56.3014C39.7712 57.1098 38.043 56.7452 36.4329 56.4072C21.511 53.2855 16.2407 27.7478 11.2392 28.9089C10.6483 29.0441 9.9068 30.6725 8.42081 33.9618C4.78118 41.9805 3.28339 47.6272 2.29962 47.4508C2.04852 47.4067 1.9185 46.9981 1.83875 46.6807C0.724991 42.2862 2.68072 31.7395 2.96728 30.2199Z" fill="white" stroke="#525375" stroke-linecap="round" stroke-linejoin="round"/>
<path d="M24.3026 40.1006C24.3652 38.9952 25.253 38.1222 26.2855 38.1508C27.3181 38.1794 28.1045 39.0986 28.042 40.204C27.9794 41.3095 27.0916 42.1824 26.0591 42.1539C25.0265 42.1253 24.2401 41.206 24.3026 40.1006Z" fill="#EFEFF7"/>
<path d="M64.8793 49.1521C64.9418 48.0467 65.8296 47.1738 66.8622 47.2023C67.8948 47.2309 68.6812 48.1501 68.6186 49.2555C68.5561 50.361 67.6683 51.2339 66.6357 51.2054C65.6031 51.1768 64.8168 50.2576 64.8793 49.1521Z" fill="#EFEFF7"/>
<path d="M32.308 42.7707C32.3706 41.6653 33.2583 40.7923 34.2909 40.8208C35.3235 40.8494 36.1099 41.7687 36.0473 42.8741C35.9848 43.9795 35.097 44.8525 34.0644 44.8239C33.0318 44.7954 32.2455 43.8761 32.308 42.7707Z" fill="#EFEFF7"/>
<path d="M74.2382 48.3707C74.3007 47.2652 75.1885 46.3923 76.2211 46.4208C77.2537 46.4494 78.04 47.3686 77.9775 48.4741C77.915 49.5795 77.0272 50.4524 75.9946 50.4239C74.962 50.3953 74.1756 49.4761 74.2382 48.3707Z" fill="#EFEFF7"/>
<path d="M44.4338 49.097C44.4749 48.3703 43.9579 47.7659 43.279 47.7471C42.6001 47.7284 42.0164 48.3023 41.9753 49.0291C41.9342 49.7558 42.4512 50.3602 43.1301 50.379C43.809 50.3977 44.3926 49.8238 44.4338 49.097Z" fill="#EFEFF7"/>
<path d="M78.0378 42.777C78.0789 42.0502 77.5619 41.4458 76.883 41.4271C76.2041 41.4083 75.6205 41.9822 75.5793 42.709C75.5382 43.4357 76.0552 44.0401 76.7341 44.0589C77.413 44.0777 77.9966 43.5037 78.0378 42.777Z" fill="#EFEFF7"/>
<path d="M71.9391 58.3118C71.9803 57.585 71.4632 56.9806 70.7844 56.9618C70.1055 56.9431 69.5218 57.517 69.4807 58.2438C69.4396 58.9705 69.9566 59.5749 70.6355 59.5937C71.3143 59.6125 71.898 59.0385 71.9391 58.3118Z" fill="#EFEFF7"/>
<path d="M29.5677 42.8096C29.5888 42.4359 29.3319 42.1254 28.9938 42.116C28.6558 42.1067 28.3646 42.402 28.3435 42.7757C28.3223 43.1494 28.5792 43.46 28.9173 43.4693C29.2553 43.4787 29.5465 43.1833 29.5677 42.8096Z" fill="#EFEFF7"/>
<path d="M60.4612 57.3072C60.4824 56.9335 60.2255 56.6229 59.8874 56.6136C59.5493 56.6042 59.2582 56.8996 59.237 57.2733C59.2159 57.647 59.4728 57.9575 59.8108 57.9669C60.1489 57.9762 60.4401 57.6809 60.4612 57.3072Z" fill="#EFEFF7"/>
<path d="M73.2195 50.4748C73.2407 50.1011 72.9838 49.7905 72.6457 49.7812C72.3076 49.7718 72.0165 50.0672 71.9953 50.4409C71.9742 50.8146 72.2311 51.1251 72.5691 51.1345C72.9072 51.1438 73.1984 50.8485 73.2195 50.4748Z" fill="#EFEFF7"/>
<path d="M4.46073 41.3068C4.48187 40.9331 4.22497 40.6226 3.88691 40.6132C3.54886 40.6039 3.25767 40.8992 3.23652 41.2729C3.21538 41.6466 3.47229 41.9572 3.81035 41.9665C4.1484 41.9759 4.43959 41.6805 4.46073 41.3068Z" fill="#EFEFF7"/>
<path d="M60.3352 52.4055C60.3564 52.0318 60.0995 51.7213 59.7614 51.712C59.4234 51.7026 59.1322 51.998 59.111 52.3717C59.0899 52.7454 59.3468 53.0559 59.6849 53.0653C60.0229 53.0746 60.3141 52.7792 60.3352 52.4055Z" fill="#EFEFF7"/>
<path d="M56.4607 51.3073C56.4819 50.9336 56.225 50.6231 55.8869 50.6137C55.5489 50.6044 55.2577 50.8997 55.2365 51.2734C55.2154 51.6471 55.4723 51.9577 55.8103 51.967C56.1484 51.9763 56.4396 51.681 56.4607 51.3073Z" fill="#EFEFF7"/>
<path d="M6.46073 31.3068C6.48187 30.9331 6.22497 30.6226 5.88691 30.6132C5.54886 30.6039 5.25767 30.8992 5.23652 31.2729C5.21538 31.6466 5.47229 31.9572 5.81035 31.9665C6.1484 31.9759 6.43959 31.6805 6.46073 31.3068Z" fill="#EFEFF7"/>
<path d="M70.4607 64.3069C70.4819 63.9332 70.225 63.6227 69.8869 63.6133C69.5489 63.604 69.2577 63.8994 69.2365 64.2731C69.2154 64.6468 69.4723 64.9573 69.8103 64.9666C70.1484 64.976 70.4396 64.6806 70.4607 64.3069Z" fill="#EFEFF7"/>
<path d="M40.8099 42.8848C40.831 42.5111 40.5741 42.2006 40.236 42.1912C39.898 42.1819 39.6068 42.4772 39.5856 42.8509C39.5645 43.2246 39.8214 43.5352 40.1595 43.5445C40.4975 43.5539 40.7887 43.2585 40.8099 42.8848Z" fill="#EFEFF7"/>
<path d="M33.7937 46.1568C33.8149 45.7831 33.558 45.4725 33.2199 45.4632C32.8819 45.4538 32.5907 45.7492 32.5695 46.1229C32.5484 46.4966 32.8053 46.8071 33.1434 46.8165C33.4814 46.8258 33.7726 46.5305 33.7937 46.1568Z" fill="#EFEFF7"/>
<path d="M37.3634 49.774C37.4046 49.0473 36.8876 48.4429 36.2087 48.4241C35.5298 48.4054 34.9461 48.9793 34.905 49.7061C34.8639 50.4328 35.3809 51.0372 36.0598 51.056C36.7387 51.0747 37.3223 50.5008 37.3634 49.774Z" fill="#EFEFF7"/>
<path d="M63.3796 53.7615C63.4207 53.0347 62.9037 52.4303 62.2248 52.4116C61.5459 52.3928 60.9622 52.9667 60.9211 53.6935C60.88 54.4202 61.397 55.0246 62.0759 55.0434C62.7548 55.0622 63.3384 54.4882 63.3796 53.7615Z" fill="#EFEFF7"/>
<path d="M81.6384 52.024C81.6795 51.2973 81.1625 50.6929 80.4836 50.6741C79.8047 50.6554 79.221 51.2293 79.1799 51.9561C79.1388 52.6828 79.6558 53.2872 80.3347 53.306C81.0136 53.3247 81.5972 52.7508 81.6384 52.024Z" fill="#EFEFF7"/>
<path d="M81.6208 40.9801C81.6619 40.2533 81.1449 39.649 80.466 39.6302C79.7871 39.6114 79.2035 40.1853 79.1623 40.9121C79.1212 41.6389 79.6382 42.2432 80.3171 42.262C80.996 42.2808 81.5797 41.7069 81.6208 40.9801Z" fill="#EFEFF7"/>
<path d="M59.2087 47.6606C59.2498 46.9339 58.7328 46.3295 58.0539 46.3107C57.375 46.292 56.7913 46.8659 56.7502 47.5927C56.7091 48.3194 57.2261 48.9238 57.905 48.9426C58.5839 48.9613 59.1675 48.3874 59.2087 47.6606Z" fill="#EFEFF7"/>
<path d="M78.9635 57.6451C79.0047 56.9184 78.4877 56.314 77.8088 56.2952C77.1299 56.2764 76.5462 56.8504 76.5051 57.5771C76.464 58.3039 76.981 58.9083 77.6599 58.9271C78.3388 58.9458 78.9224 58.3719 78.9635 57.6451Z" fill="#EFEFF7"/>
<path d="M8.42448 28.98C8.4656 28.2532 7.9486 27.6488 7.26972 27.6301C6.59084 27.6113 6.00717 28.1852 5.96605 28.912C5.92493 29.6387 6.44194 30.2431 7.12082 30.2619C7.79969 30.2807 8.38337 29.7067 8.42448 28.98Z" fill="#EFEFF7"/>
<path d="M70.3254 47.5669C70.3665 46.8401 69.8495 46.2357 69.1706 46.217C68.4917 46.1982 67.908 46.7721 67.8669 47.4989C67.8258 48.2257 68.3428 48.83 69.0217 48.8488C69.7006 48.8676 70.2842 48.2936 70.3254 47.5669Z" fill="#EFEFF7"/>
<path d="M5.42497 36.9803C5.46609 36.2536 4.94908 35.6492 4.27021 35.6304C3.59133 35.6117 3.00766 36.1856 2.96654 36.9124C2.92542 37.6391 3.44243 38.2435 4.12131 38.2623C4.80018 38.281 5.38385 37.7071 5.42497 36.9803Z" fill="#EFEFF7"/>
<path d="M82.3266 45.1217C82.4216 43.4423 81.2269 42.0457 79.6582 42.0023C78.0894 41.9589 76.7407 43.2852 76.6457 44.9646C76.5507 46.644 77.7453 48.0405 79.3141 48.0839C80.8828 48.1273 82.2316 46.801 82.3266 45.1217Z" fill="#EFEFF7"/>
<path d="M69.9897 55.9077C70.0847 54.2283 68.89 52.8317 67.3213 52.7883C65.7525 52.7449 64.4038 54.0712 64.3088 55.7506C64.2137 57.43 65.4084 58.8265 66.9772 58.8699C68.5459 58.9133 69.8947 57.5871 69.9897 55.9077Z" fill="#EFEFF7"/>
<path d="M42.3271 46.7943C42.4221 45.1149 41.2274 43.7183 39.6587 43.6749C38.0899 43.6315 36.7412 44.9578 36.6462 46.6372C36.5511 48.3166 37.7458 49.7131 39.3146 49.7565C40.8833 49.7999 42.2321 48.4737 42.3271 46.7943Z" fill="#EFEFF7"/>
<path d="M35.5022 49.0671C35.5826 47.6458 34.5715 46.4639 33.2439 46.4272C31.9163 46.3905 30.7748 47.5129 30.6944 48.9341C30.614 50.3554 31.6251 51.5373 32.9527 51.574C34.2803 51.6108 35.4218 50.4884 35.5022 49.0671Z" fill="#EFEFF7"/>
<path d="M63.0733 60.215C63.1214 59.365 62.5167 58.6581 61.7227 58.6361C60.9287 58.6142 60.246 59.2855 60.1979 60.1355C60.1498 60.9855 60.7545 61.6924 61.5485 61.7143C62.3425 61.7363 63.0252 61.065 63.0733 60.215Z" fill="#EFEFF7"/>
<path d="M21.4117 35.2146C21.4598 34.3646 20.8551 33.6577 20.0611 33.6358C19.267 33.6138 18.5844 34.2851 18.5363 35.1351C18.4882 35.9851 19.0929 36.692 19.8869 36.714C20.6809 36.7359 21.3636 36.0646 21.4117 35.2146Z" fill="#EFEFF7"/>
<path d="M30.8848 48.5534C30.9329 47.7033 30.3282 46.9965 29.5342 46.9745C28.7402 46.9526 28.0575 47.6238 28.0094 48.4738C27.9613 49.3239 28.566 50.0307 29.36 50.0527C30.1541 50.0747 30.8367 49.4034 30.8848 48.5534Z" fill="#EFEFF7"/>
<path d="M64.4122 61.3659C64.4602 60.5158 63.8556 59.809 63.0615 59.787C62.2675 59.7651 61.5849 60.4363 61.5368 61.2863C61.4887 62.1364 62.0934 62.8432 62.8874 62.8652C63.6814 62.8872 64.3641 62.2159 64.4122 61.3659Z" fill="#EFEFF7"/>
<path d="M46.3794 44.5193C46.4275 43.6693 45.8228 42.9624 45.0288 42.9405C44.2348 42.9185 43.5522 43.5898 43.5041 44.4398C43.456 45.2898 44.0607 45.9967 44.8547 46.0186C45.6487 46.0406 46.3313 45.3693 46.3794 44.5193Z" fill="#EFEFF7"/>
<path d="M40.4122 53.215C40.4602 52.365 39.8556 51.6581 39.0615 51.6361C38.2675 51.6142 37.5849 52.2855 37.5368 53.1355C37.4887 53.9855 38.0934 54.6924 38.8874 54.7143C39.6814 54.7363 40.3641 54.065 40.4122 53.215Z" fill="#EFEFF7"/>
<path d="M25.1998 39.646C25.2478 38.796 24.6432 38.0891 23.8491 38.0672C23.0551 38.0452 22.3725 38.7165 22.3244 39.5665C22.2763 40.4165 22.881 41.1234 23.675 41.1453C24.469 41.1673 25.1517 40.496 25.1998 39.646Z" fill="#EFEFF7"/>
<path d="M95.341 27.8124C99.2111 28.0358 103.166 28.3395 107.205 28.7236C108.44 28.8412 109.665 28.9656 110.88 29.0969" stroke="#525375" stroke-linecap="round" stroke-linejoin="round"/>
<path d="M96.1235 12.8712L97.2196 22.9887L100.351 22.6125L100.07 14.7877L96.1235 12.8712Z" fill="#525375" stroke="#525375" stroke-linecap="round" stroke-linejoin="round"/>
<path d="M103.11 23.112L103.362 17.5947L106.744 18.1856L105.743 23.8616L103.11 23.112Z" fill="#525375" stroke="#525375" stroke-linecap="round" stroke-linejoin="round"/>
<path d="M105.562 28.7013C110.218 30.0359 114.792 31.6388 119.261 33.5021C123.422 35.2326 122.4 35.065 128.219 37.6125C136.487 41.2302 138.617 41.5787 141.228 44.4104C142.861 46.2112 144.126 48.3107 144.954 50.5921C146.603 55.1691 145.675 58.4456 146.194 58.5558C147.776 58.8917 155.649 28.3406 154.153 27.8858C153.657 27.7372 152.875 31.0997 149.317 33.5173C146.637 34.2664 143.872 34.6793 141.089 34.7466C132.757 34.9339 128.413 31.8273 119.209 29.9457C114.72 29.0337 110.144 28.6164 105.562 28.7013Z" fill="white" stroke="#525375" stroke-linecap="round" stroke-linejoin="round"/>
<path d="M118.907 29.6441C119.206 29.9103 118.94 30.3109 118.634 31.1796C118.239 32.2936 118.237 32.8052 117.875 32.8662C117.781 32.8729 117.687 32.8608 117.597 32.8307C117.508 32.8007 117.426 32.7534 117.355 32.6914C115.987 31.6469 105.327 29.5834 105.448 28.5616C105.569 27.5398 116.392 29.3715 118.42 29.457C118.598 29.4643 118.77 29.5301 118.907 29.6441Z" fill="white" stroke="#525375" stroke-linecap="round" stroke-linejoin="round"/>
<path d="M122.056 31.6422C122.399 31.261 123.686 31.5393 123.819 32.1783C123.843 32.3819 123.795 32.5875 123.683 32.7597C123.571 32.9319 123.402 33.0601 123.206 33.122C122.706 33.2703 122.239 32.8419 122.068 32.4533C122.049 32.4125 121.811 31.8868 122.056 31.6422Z" fill="white" stroke="#525375" stroke-linecap="round" stroke-linejoin="round"/>
<path d="M127.532 33.3744C127.845 33.2386 128.201 33.2319 128.52 33.3556C128.838 33.4793 129.095 33.7235 129.234 34.0349C129.308 34.2209 129.331 34.4232 129.301 34.621C129.271 34.8189 129.188 35.0051 129.061 35.1605C128.523 35.7708 127.171 35.608 126.865 34.8804C126.774 34.5916 126.792 34.28 126.915 34.0032C127.037 33.7264 127.256 33.503 127.532 33.3744Z" fill="white" stroke="#525375" stroke-linecap="round" stroke-linejoin="round"/>
<path d="M133.967 34.8398C134.663 34.918 135.471 35.4385 135.52 36.1903C135.519 36.4072 135.47 36.6211 135.375 36.8163C135.28 37.0115 135.142 37.183 134.972 37.3183C134.668 37.5523 134.296 37.6818 133.912 37.6873C133.528 37.6928 133.152 37.5741 132.842 37.3489C132.415 37.0316 131.983 36.3763 132.193 35.7383C132.442 35.0086 133.355 34.7692 133.967 34.8398Z" fill="white" stroke="#525375" stroke-linecap="round" stroke-linejoin="round"/>
<path d="M150.665 35.9732C148.119 41.5806 146.064 52.3696 146.905 52.4692C147.813 52.5767 150.832 40.01 151.491 37.1167C151.816 35.6892 152.206 33.8285 151.94 33.7765C151.673 33.7245 150.92 35.411 150.665 35.9732Z" fill="#525375" stroke="#525375" stroke-linecap="round" stroke-linejoin="round"/>
<path d="M93.0347 21.247C93.0347 21.247 90.1514 17.3787 87.268 21.247C84.3847 25.1152 87.6461 30.4738 91.6551 28.2281" stroke="#525375" stroke-linecap="round" stroke-linejoin="round"/>
</svg>
