<svg width="148" height="119" viewBox="0 0 148 119" fill="none" xmlns="http://www.w3.org/2000/svg">
<path d="M79.6586 9.47503C84.7886 9.90122 88.636 10.6073 89.4696 10.7472C106.706 13.8642 122.815 11.536 136.787 21.6756C143.123 26.2683 148.497 33.0429 147.195 35.0339C146.015 36.8468 139.359 34.4296 130.875 31.389C122.032 28.2085 108.861 23.5266 92.0731 17.6553C91.9534 31.6752 91.8274 45.6994 91.6948 59.7278C101.448 60.2367 108.938 63.1436 110.06 67.6218C110.343 68.5732 110.291 69.5917 109.913 70.5098C108.399 73.8303 101.653 74.8035 92.817 72.9842C92.9838 78.6138 93.4582 83.1239 93.8365 86.2408C94.1123 88.3909 94.4201 90.3883 94.5548 93.4289C94.8113 99.3765 94.9587 102.703 93.0221 103.95C91.0855 105.197 87.4883 104.154 85.3722 102.042C81.2554 97.9135 83.8268 90.6237 81.0181 89.625C79.5817 89.1161 78.7673 90.9735 75.8496 90.7063C73.5219 90.49 72.3933 89.1479 71.2262 89.7585C70.2708 90.261 70.1104 91.6287 69.9437 92.6592C69.1229 98.9376 68.8024 102.144 67.2826 103.963C65.2434 106.406 61.3252 107.608 59.4336 106.38C57.2661 104.968 57.946 100.248 57.9973 95.0446C58.0294 92.0613 58.1896 90.0511 58.1896 90.0511C58.4717 86.2344 58.7411 80.5094 58.6129 72.6916C57.7793 72.8825 44.7809 75.7958 42.8444 71.7375C42.1069 70.2108 43.2293 68.277 43.7167 67.431C47.8656 60.2493 60.1389 60.7328 61.6137 60.8091C60.7374 46.4288 59.8632 32.0484 58.9911 17.6681C11.5964 9.58945 0.79765 5.70918 1.00285 3.67362C1.26576 1.06557 19.766 -0.219373 36.1692 2.56043C45.5357 4.15943 54.6117 7.12628 63.1016 11.3643C66.6017 10.0386 70.3025 9.30957 74.0477 9.20791C75.9216 9.19042 77.795 9.27958 79.6586 9.47503V9.47503Z" fill="white" stroke="#525375" stroke-linecap="round" stroke-linejoin="round"/>
<path d="M78.8449 46.0447C78.8449 46.0447 89.8615 40.5106 86.5975 33.4943C83.3335 26.478 67.2833 29.7158 62.9292 32.6864C58.5751 35.6571 67.2832 48.3347 78.8449 46.0447Z" fill="white" stroke="#525375" stroke-linecap="round" stroke-linejoin="round"/>
<path d="M77.6006 23.6411C77.6006 23.6411 77.9404 22.4261 78.8831 22.9668C79.8257 23.5075 79.5627 24.2391 79.2228 24.4553C78.8829 24.6716 77.825 25.3968 77.6006 23.6411Z" fill="#525375" stroke="#525375" stroke-linecap="round" stroke-linejoin="round"/>
<path d="M74.3945 23.4378C74.3945 23.4378 73.7853 21.9556 72.1502 23.3741C70.515 24.7927 74.0739 25.7341 74.2599 24.9899C74.3848 24.4824 74.4302 23.959 74.3945 23.4378Z" fill="#525375" stroke="#525375" stroke-linecap="round" stroke-linejoin="round"/>
<path d="M79.967 49.2188L80.5826 57.0747L76.8057 57.1765L76.9083 49.8231L79.967 49.2188Z" fill="white" stroke="#525375" stroke-linecap="round" stroke-linejoin="round"/>
<path d="M75.5812 49.9951L75.2734 57.4821L71.6055 57.7875L72.2467 50.6312L75.5812 49.9951Z" fill="white" stroke="#525375" stroke-linecap="round" stroke-linejoin="round"/>
<path d="M83.6095 48.4746L66.6035 51.6424" stroke="#525375" stroke-linecap="round" stroke-linejoin="round"/>
<path d="M108.797 68.8044L106.04 67.793" stroke="#525375" stroke-linecap="round" stroke-linejoin="round"/>
<path d="M108.284 71.54L106.04 70.4268" stroke="#525375" stroke-linecap="round" stroke-linejoin="round"/>
<path d="M48.0776 68.8047L44.5059 70.2232" stroke="#525375" stroke-linecap="round" stroke-linejoin="round"/>
<path d="M47.4679 71.1328L44.4092 72.0425" stroke="#525375" stroke-linecap="round" stroke-linejoin="round"/>
<path d="M92.1055 15.6133C94.3498 15.8614 97.5175 16.2495 101.288 16.8284C110.349 18.2342 117.011 19.8816 118.935 20.3714C120.859 20.8612 133.812 24.2262 141.584 30.8927C141.994 31.2425 142.642 31.8279 142.501 32.1077C141.937 33.2591 129.471 27.8584 114.344 22.5978C105.591 19.5508 97.9985 17.2672 92.1055 15.6133Z" fill="#525375" stroke="#525375" stroke-linecap="round" stroke-linejoin="round"/>
<path d="M59.12 15.9501C54.0203 13.4246 48.7465 11.2607 43.3386 9.47451C38.1553 7.69149 32.8319 6.33822 27.4229 5.42878C17.7657 3.85123 7.54405 3.83862 7.42863 4.75462C7.34527 5.44162 13.0588 6.47203 35.323 11.0266C45.4675 13.1067 53.7399 14.8242 59.12 15.9501Z" fill="#525375" stroke="#525375" stroke-linecap="round" stroke-linejoin="round"/>
<path d="M56.5356 92.6211L71.0921 93.0281L69.5914 105.305C70.0659 109.332 69.7069 110.528 69.1875 110.699C68.2769 111.005 67.3021 108.244 65.1026 108.002C63.1789 107.792 62.2943 109.764 59.7998 111.107C55.6894 113.314 50.0014 112.309 49.5974 110.839C49.1165 109.084 55.9393 105.801 58.3376 104.694C57.7348 100.657 57.1341 96.6328 56.5356 92.6211Z" fill="white" stroke="#525375" stroke-linecap="round" stroke-linejoin="round"/>
<path d="M81.4482 93.136L95.4596 92.3281L94.9787 103.555C95.9983 104.026 101.141 106.412 103.655 108.415C103.821 108.555 104.078 108.765 104.059 109.051C103.982 110.158 99.0249 111.806 94.7798 110.565C91.3171 109.56 90.4579 107.258 88.2455 107.735C86.0332 108.212 85.36 110.699 84.4366 110.432C83.8659 110.26 83.404 109.064 83.6541 104.999L81.4482 93.136Z" fill="white" stroke="#525375" stroke-linecap="round" stroke-linejoin="round"/>
<path d="M92.8064 96.1955C93.1438 95.2686 92.6659 94.2437 91.739 93.9063C90.8121 93.5689 89.7872 94.0468 89.4498 94.9737C89.1124 95.9006 89.5903 96.9255 90.5172 97.2629C91.4441 97.6003 92.469 97.1224 92.8064 96.1955Z" fill="#EFEFF7"/>
<path d="M91.6823 85.5833C92.0197 84.6564 91.5419 83.6315 90.615 83.2941C89.6881 82.9567 88.6632 83.4346 88.3258 84.3615C87.9884 85.2884 88.4662 86.3133 89.3931 86.6507C90.32 86.9881 91.3449 86.5102 91.6823 85.5833Z" fill="#EFEFF7"/>
<path d="M85.1811 95.4866C85.3909 94.9103 85.0938 94.2731 84.5175 94.0633C83.9412 93.8535 83.304 94.1506 83.0942 94.7269C82.8844 95.3032 83.1815 95.9404 83.7578 96.1502C84.3341 96.36 84.9713 96.0629 85.1811 95.4866Z" fill="#EFEFF7"/>
<path d="M66.9094 99.0557C67.2468 98.1288 66.7689 97.1039 65.842 96.7665C64.9151 96.4291 63.8902 96.907 63.5528 97.8339C63.2154 98.7608 63.6933 99.7857 64.6202 100.123C65.5471 100.461 66.572 99.9826 66.9094 99.0557Z" fill="#EFEFF7"/>
<path d="M85.1162 99.7865C85.3381 99.1771 86.0119 98.863 86.6213 99.0848C87.2307 99.3066 87.5449 99.9804 87.323 100.59C87.1012 101.199 86.4274 101.513 85.818 101.292C85.2086 101.07 84.8944 100.396 85.1162 99.7865Z" fill="#EFEFF7"/>
<path d="M67.1167 94.7864C67.3385 94.177 68.0124 93.8628 68.6218 94.0847C69.2312 94.3065 69.5453 94.9803 69.3235 95.5897C69.1017 96.1991 68.4279 96.5133 67.8185 96.2915C67.2091 96.0696 66.8949 95.3958 67.1167 94.7864Z" fill="#EFEFF7"/>
<path d="M55.245 108.434C55.5378 107.629 56.4271 107.215 57.2314 107.507C58.0356 107.8 58.4503 108.689 58.1575 109.494C57.8648 110.298 56.9755 110.713 56.1712 110.42C55.3669 110.127 54.9523 109.238 55.245 108.434Z" fill="#EFEFF7"/>
<path d="M87.1691 96.5734C87.2832 96.26 87.6217 96.0956 87.9251 96.206C88.2286 96.3165 88.3821 96.66 88.2681 96.9734C88.154 97.2868 87.8155 97.4512 87.5121 97.3408C87.2086 97.2303 87.0551 96.8867 87.1691 96.5734Z" fill="#EFEFF7"/>
<path d="M59.9211 107.251C60.0352 106.938 60.3736 106.773 60.6771 106.884C60.9805 106.994 61.1341 107.338 61.02 107.651C60.9059 107.964 60.5675 108.129 60.264 108.018C59.9606 107.908 59.807 107.564 59.9211 107.251Z" fill="#EFEFF7"/>
<path d="M58.9211 95.2511C59.0352 94.9378 59.3736 94.7733 59.6771 94.8838C59.9805 94.9942 60.1341 95.3378 60.02 95.6511C59.9059 95.9645 59.5675 96.129 59.264 96.0185C58.9606 95.908 58.807 95.5645 58.9211 95.2511Z" fill="#EFEFF7"/>
<path d="M68.883 88.205C68.9971 87.8916 69.3355 87.7272 69.639 87.8376C69.9424 87.9481 70.096 88.2916 69.9819 88.605C69.8679 88.9183 69.5294 89.0828 69.2259 88.9724C68.9225 88.8619 68.769 88.5183 68.883 88.205Z" fill="#EFEFF7"/>
<path d="M93.9211 106.251C94.0352 105.938 94.3736 105.773 94.6771 105.884C94.9805 105.994 95.1341 106.338 95.02 106.651C94.9059 106.964 94.5675 107.129 94.264 107.018C93.9606 106.908 93.807 106.564 93.9211 106.251Z" fill="#EFEFF7"/>
<path d="M75.9206 87.2512C76.0347 86.9379 76.3731 86.7734 76.6766 86.8839C76.98 86.9943 77.1336 87.3379 77.0195 87.6513C76.9055 87.9646 76.567 88.1291 76.2635 88.0186C75.9601 87.9082 75.8065 87.5646 75.9206 87.2512Z" fill="#EFEFF7"/>
<path d="M82.9206 96.2512C83.0347 95.9379 83.3731 95.7734 83.6766 95.8839C83.98 95.9943 84.1336 96.3379 84.0195 96.6513C83.9055 96.9646 83.567 97.1291 83.2635 97.0186C82.9601 96.9082 82.8065 96.5646 82.9206 96.2512Z" fill="#EFEFF7"/>
<path d="M89.1167 101.786C89.3385 101.177 90.0124 100.863 90.6218 101.085C91.2312 101.306 91.5453 101.98 91.3235 102.59C91.1017 103.199 90.4279 103.513 89.8185 103.291C89.2091 103.07 88.8949 102.396 89.1167 101.786Z" fill="#EFEFF7"/>
<path d="M53.1167 109.786C53.3385 109.177 54.0124 108.863 54.6218 109.084C55.2312 109.306 55.5453 109.98 55.3235 110.589C55.1017 111.199 54.4279 111.513 53.8185 111.291C53.2091 111.069 52.8949 110.396 53.1167 109.786Z" fill="#EFEFF7"/>
<path d="M59.0415 99.4615C59.2633 98.8521 59.9372 98.5379 60.5466 98.7597C61.156 98.9815 61.4702 99.6554 61.2483 100.265C61.0265 100.874 60.3527 101.188 59.7433 100.967C59.1339 100.745 58.8197 100.071 59.0415 99.4615Z" fill="#EFEFF7"/>
<path d="M62.9815 90.4259C63.2033 89.8165 63.8771 89.5024 64.4865 89.7242C65.0959 89.946 65.4101 90.6198 65.1883 91.2292C64.9664 91.8386 64.2926 92.1528 63.6832 91.931C63.0738 91.7092 62.7596 91.0353 62.9815 90.4259Z" fill="#EFEFF7"/>
<path d="M59.1294 90.189C59.3512 89.5796 60.0251 89.2654 60.6345 89.4872C61.2439 89.7091 61.558 90.3829 61.3362 90.9923C61.1144 91.6017 60.4406 91.9159 59.8312 91.6941C59.2218 91.4722 58.9076 90.7984 59.1294 90.189Z" fill="#EFEFF7"/>
<path d="M66.1167 105.786C66.3385 105.177 67.0124 104.863 67.6218 105.085C68.2312 105.306 68.5453 105.98 68.3235 106.59C68.1017 107.199 67.4279 107.513 66.8185 107.291C66.2091 107.07 65.8949 106.396 66.1167 105.786Z" fill="#EFEFF7"/>
<path d="M87.9668 89.1966C88.1062 88.8137 88.5296 88.6162 88.9125 88.7556C89.2954 88.895 89.4928 89.3184 89.3535 89.7013C89.2141 90.0842 88.7907 90.2817 88.4077 90.1423C88.0248 90.0029 87.8274 89.5795 87.9668 89.1966Z" fill="#EFEFF7"/>
<path d="M84.1167 89.7864C84.3385 89.177 85.0124 88.8628 85.6218 89.0847C86.2312 89.3065 86.5453 89.9803 86.3235 90.5897C86.1017 91.1991 85.4279 91.5133 84.8185 91.2915C84.2091 91.0696 83.8949 90.3958 84.1167 89.7864Z" fill="#EFEFF7"/>
<path d="M88.356 104.984C88.5778 104.375 89.2516 104.06 89.861 104.282C90.4704 104.504 90.7846 105.178 90.5628 105.787C90.341 106.397 89.6671 106.711 89.0577 106.489C88.4483 106.267 88.1342 105.593 88.356 104.984Z" fill="#EFEFF7"/>
<path d="M59.6426 103.234C60.1552 101.825 61.7123 101.099 63.1205 101.612C64.5287 102.125 65.2547 103.682 64.7421 105.09C64.2295 106.498 62.6724 107.224 61.2642 106.711C59.8561 106.199 59.13 104.642 59.6426 103.234Z" fill="#EFEFF7"/>
<path d="M73.2862 86.2134C73.6018 85.3463 74.5605 84.8993 75.4275 85.2149C76.2945 85.5305 76.7415 86.4892 76.4259 87.3563C76.1103 88.2233 75.1516 88.6703 74.2846 88.3547C73.4176 88.0391 72.9706 87.0804 73.2862 86.2134Z" fill="#EFEFF7"/>
<path d="M60.2862 83.2134C60.6018 82.3463 61.5605 81.8993 62.4275 82.2149C63.2945 82.5305 63.7415 83.4892 63.4259 84.3563C63.1103 85.2233 62.1516 85.6703 61.2846 85.3547C60.4176 85.0391 59.9706 84.0804 60.2862 83.2134Z" fill="#EFEFF7"/>
<path d="M87.1016 83.7467C87.3153 83.1596 87.9646 82.8569 88.5517 83.0706C89.1388 83.2843 89.4415 83.9335 89.2278 84.5207C89.0141 85.1078 88.3649 85.4105 87.7777 85.1968C87.1906 84.983 86.8879 84.3338 87.1016 83.7467Z" fill="#EFEFF7"/>
<path d="M92.4834 99.977C92.6338 99.5637 92.4207 99.1068 92.0074 98.9563C91.5942 98.8059 91.1372 99.019 90.9867 99.4322C90.8363 99.8455 91.0494 100.302 91.4627 100.453C91.8759 100.603 92.3329 100.39 92.4834 99.977Z" fill="#EFEFF7"/>
<path d="M89.1846 89.9738C89.444 89.261 90.2322 88.8936 90.9449 89.153C91.6576 89.4125 92.0251 90.2006 91.7657 90.9133C91.5062 91.6261 90.7181 91.9935 90.0054 91.7341C89.2926 91.4746 88.9251 90.6865 89.1846 89.9738Z" fill="#EFEFF7"/>
<path d="M83.9585 100.816C84.218 100.104 85.0061 99.7362 85.7188 99.9957C86.4316 100.255 86.799 101.043 86.5396 101.756C86.2801 102.469 85.492 102.836 84.7793 102.577C84.0665 102.317 83.6991 101.529 83.9585 100.816Z" fill="#EFEFF7"/>
<path d="M92.2393 100.133C92.4987 99.4203 93.2868 99.0529 93.9996 99.3123C94.7123 99.5718 95.0798 100.36 94.8204 101.073C94.5609 101.785 93.7728 102.153 93.0601 101.893C92.3473 101.634 91.9798 100.846 92.2393 100.133Z" fill="#EFEFF7"/>
<path d="M61.1841 85.9739C61.4436 85.2612 62.2317 84.8937 62.9444 85.1531C63.6572 85.4126 64.0246 86.2007 63.7652 86.9134C63.5057 87.6262 62.7176 87.9937 62.0049 87.7342C61.2921 87.4748 60.9247 86.6867 61.1841 85.9739Z" fill="#EFEFF7"/>
<path d="M98.1846 107.974C98.444 107.261 99.2322 106.894 99.9449 107.153C100.658 107.412 101.025 108.201 100.766 108.913C100.506 109.626 99.7181 109.994 99.0054 109.734C98.2926 109.475 97.9251 108.687 98.1846 107.974Z" fill="#EFEFF7"/>
<path d="M92.1719 95.5094C92.4313 94.7967 93.2195 94.4292 93.9322 94.6887C94.6449 94.9481 95.0124 95.7362 94.753 96.449C94.4935 97.1617 93.7054 97.5292 92.9927 97.2697C92.2799 97.0103 91.9125 96.2222 92.1719 95.5094Z" fill="#EFEFF7"/>
</svg>
