<svg width="44" height="33" viewBox="0 0 44 33" fill="none" xmlns="http://www.w3.org/2000/svg">
<path d="M2.24329 3.12911L1.16992 30.5289C1.16992 30.5289 22.1289 34.5429 22.8633 29.3072C23.2418 26.6138 22.6712 23.327 21.4171 21.3724C18.3721 16.6254 12.864 16.4567 12.3556 16.4509C19.9822 14.7871 24.7558 11.192 24.6429 7.94007C24.5581 5.4037 21.5075 3.57705 20.2646 2.83824C13.0165 -1.48988 4.2601 2.2216 2.24329 3.12911Z" fill="white" stroke="#525375" stroke-miterlimit="10" stroke-linecap="round" stroke-linejoin="round"/>
<path d="M7.44067 5.86412C8.15248 5.71868 15.8638 4.20035 17.327 7.02759C17.423 7.21375 17.5473 7.46971 17.5304 7.81293C17.4061 10.7274 7.1582 12.205 7.1582 12.205C7.25424 10.0933 7.34463 7.98164 7.44067 5.86412Z" fill="#525375" stroke="#525375" stroke-miterlimit="10" stroke-linecap="round" stroke-linejoin="round"/>
<path d="M17.44 27.0967C16.3949 28.9757 12.6211 28.487 11.2822 28.3183C9.723 28.1205 8.49145 27.6668 7.72314 27.3294C7.79659 25.1944 7.87568 23.0652 7.94912 20.9303C11.785 20.0635 15.2819 20.9186 16.8186 23.2572C17.4174 24.1764 18.1066 25.9041 17.44 27.0967Z" fill="#525375" stroke="#525375" stroke-miterlimit="10" stroke-linecap="round" stroke-linejoin="round"/>
<path d="M42.9751 22.8909C43.0485 21.7972 43.0373 19.6273 41.7775 17.5854C38.8624 12.8443 32.2583 13.6645 31.925 13.7169C30.6991 13.8914 27.8688 14.287 26.1401 16.5616C23.355 20.2265 24.2702 27.6378 29.2134 30.5116C33.6481 33.0887 39.964 31.2272 42.6587 25.8403C41.1447 25.6948 39.6364 25.5552 38.1223 25.4098C36.6761 27.1317 34.5294 27.9171 32.5973 27.3935C30.6652 26.8758 29.6653 25.2353 29.5749 25.084C28.9535 24.0369 28.8574 23.013 28.8461 22.5069C33.5633 22.6407 38.2692 22.7687 42.9751 22.8909Z" fill="white" stroke="#525375" stroke-miterlimit="10" stroke-linecap="round" stroke-linejoin="round"/>
<path d="M39.3312 20.5283C35.9077 20.5108 32.4842 20.4933 29.0664 20.4759C29.7782 18.4107 31.4956 16.9215 33.4955 16.6655C35.9416 16.3514 38.4104 17.9337 39.3312 20.5283Z" fill="#525375" stroke="#525375" stroke-miterlimit="10" stroke-linecap="round" stroke-linejoin="round"/>
<path d="M40.7151 11.2153C38.2916 11.3898 36.2522 11.5817 34.7268 11.7388C30.8062 12.146 29.0549 12.4602 28.4561 11.5061C28.0776 10.9069 28.2584 9.9587 28.6821 9.41187C29.0888 8.88831 29.682 8.78359 32.8626 8.71379C33.9416 8.69052 34.8398 8.6847 36.8736 8.71379C39.8621 8.76032 40.5682 8.8185 40.8846 9.3537C41.1953 9.87726 40.9919 10.6102 40.7151 11.2153Z" fill="white" stroke="#525375" stroke-miterlimit="10" stroke-linecap="round" stroke-linejoin="round"/>
</svg>
