<svg width="32" height="32" viewBox="0 0 32 32" fill="none" xmlns="http://www.w3.org/2000/svg">
<g clip-path="url(#clip0_1403_1309)">
<path d="M29.5443 7.63073C24.7918 -0.49235 13.3066 -1.80517 6.41555 3.85637C1.02941 8.20509 -1.18841 16.4102 1.66307 22.8102C5.62347 31.5077 18.0591 34.4615 25.5839 28.3897C31.366 23.7128 33.5047 14.441 29.5443 7.63073Z" fill="white" stroke="#525375" stroke-miterlimit="10" stroke-linecap="round" stroke-linejoin="round"/>
<path d="M6.89062 3.52832C9.6629 5.2514 14.4946 8.7796 18.455 15.0155C22.0985 20.7591 23.3659 26.2565 23.9203 29.3745" stroke="#525375" stroke-miterlimit="10" stroke-linecap="round" stroke-linejoin="round"/>
<path d="M25.029 3.11768C24.4745 5.16896 22.8903 9.51768 18.7715 13.0459C11.1676 19.4459 1.66262 16.9023 0.553711 16.5741" stroke="#525375" stroke-miterlimit="10" stroke-linecap="round" stroke-linejoin="round"/>
<path d="M31.6039 16.7386C30.0198 16.2463 26.0594 15.3438 21.7822 16.9848C13.3861 20.2668 11.7228 30.3591 11.6436 30.8515" stroke="#525375" stroke-miterlimit="10" stroke-linecap="round" stroke-linejoin="round"/>
</g>
<defs>
<clipPath id="clip0_1403_1309">
<rect width="32" height="32" fill="white"/>
</clipPath>
</defs>
</svg>
