<svg width="20" height="33" viewBox="0 0 20 33" fill="none" xmlns="http://www.w3.org/2000/svg">
<path d="M19.1054 4.64151C18.0487 2.17029 15.8118 0.643054 13.6058 0.793372C12.1537 0.889576 11.1094 1.69528 10.6397 2.11617C10.6397 2.11617 7.76635 3.66144 7.48828 12.3378L1.37076 12.0372L1 16.8473C3.26781 16.8473 5.52944 16.8473 7.79724 16.8473C7.73545 21.898 7.67366 26.9487 7.61187 31.9994L14.5945 31.7589C14.1001 26.7082 13.6058 21.6575 13.1115 16.6068C14.4276 16.5647 15.75 16.5287 17.0662 16.4866C17.4988 15.2419 17.9313 14.0033 18.3639 12.7587C16.3865 12.6384 14.4091 12.5182 12.4317 12.3979C12.2525 11.3036 12.234 10.3957 12.2464 9.75233C12.2772 8.48364 12.3081 7.44945 12.9261 6.3852C13.2412 5.84406 13.6676 5.09848 14.3473 5.00228C15.2371 4.87601 16.3371 5.89817 16.9426 7.58775C17.6656 6.60767 18.3824 5.6276 19.1054 4.64151Z" fill="white" stroke="#525375" stroke-miterlimit="10" stroke-linecap="round" stroke-linejoin="round"/>
</svg>