<svg width="34" height="33" viewBox="0 0 34 33" fill="none" xmlns="http://www.w3.org/2000/svg">
<path d="M26.0286 2.22201C26.0286 2.22201 13.8855 -0.227855 6.7567 1.26596C-0.372081 2.75978 0.473706 25.7646 3.79644 29.7083C7.11918 33.652 28.9284 31.5606 30.0159 30.3656C31.1033 29.1705 36.903 5.09014 26.0286 2.22201Z" fill="white" stroke="#525375" stroke-miterlimit="10" stroke-linecap="round" stroke-linejoin="round"/>
<path d="M26.6934 6.46448C26.6934 6.46448 25.2435 4.73165 23.3103 6.46448C21.377 8.19731 25.0623 9.33262 26.4518 8.49608C27.8413 7.65954 26.6934 6.46448 26.6934 6.46448Z" fill="#525375" stroke="#525375" stroke-miterlimit="10" stroke-linecap="round" stroke-linejoin="round"/>
<path d="M22.6452 12.0221C22.6452 12.0221 19.3225 6.7639 12.0125 11.3051C4.70243 15.8463 9.11261 25.7055 15.6977 24.9885C22.2827 24.2715 25.7263 18.5352 22.6452 12.0221Z" fill="#525375" stroke="#525375" stroke-miterlimit="10" stroke-linecap="round" stroke-linejoin="round"/>
</svg>
