<svg width="33" height="29" viewBox="0 0 33 29" fill="none" xmlns="http://www.w3.org/2000/svg">
<path d="M1.40001 11.4015C1.29058 11.9535 1.18115 28.1259 1.18115 28.1259L6.43377 28.0155L7.09034 11.0703L1.40001 11.4015Z" fill="white" stroke="#525375" stroke-miterlimit="10" stroke-linecap="round" stroke-linejoin="round"/>
<path d="M6.76179 6.76479L0.743164 6.87518L1.18088 0.748413H7.30893L6.76179 6.76479Z" fill="white" stroke="#525375" stroke-miterlimit="10" stroke-linecap="round" stroke-linejoin="round"/>
<path d="M11.9708 2.18376C11.73 10.7944 11.4893 19.4049 11.2485 28.0155L16.9608 28.1259L17.2507 10.2976C17.2507 10.2976 20.5172 4.77798 24.2597 7.86896C28.0022 10.9599 25.2227 27.7948 25.2227 27.7948L30.6996 27.574C33.0633 15.5633 31.9143 5.84326 28.8065 3.07241C26.5851 1.09087 24.2159 0.748657 24.2159 0.748657C23.5703 0.654823 21.9015 0.434039 20.0357 1.35581C17.4368 2.64188 16.3042 5.24162 16.0032 5.99229C15.9704 4.62895 15.9376 3.27112 15.9048 1.90778C14.5916 2.00161 13.2839 2.09544 11.9708 2.18376Z" fill="white" stroke="#525375" stroke-miterlimit="10" stroke-linecap="round" stroke-linejoin="round"/>
</svg>
